<svg xmlns="http://www.w3.org/2000/svg" viewBox="0 0 769.89 692.16">
    <g>
        <path
            d="M58.27,268.05Q0,216.46,0,157.25q0-55.4,44.89-93.61c31.84-27.37,73.26-43.08,124.22-43.08C237.65,19.11,271.54,22.42,291,24.3c-13.3,12.24-35.68,15.59-75.69,1.7l26.74,40.38-73,3.94q-53.5,0-88.83,25.8-41.05,29.61-41.08,74t29.61,93.14Z"
            style="fill:#ffffff" />
        <path
            d="M597.18,22.57h60a391,391,0,0,0,64-5.73q34.4-5.73,48.72-11.47V202.14l-9.56-1V194.5q0-77.37-57.31-108.89Q675.3,71.29,637.11,70.32H603.4Z"
            style="fill:#ffffff" />
        <path
            d="M311.8,468.82l40.31,13.9c-1.13-12.14-1-22.19-3.17-31.78-4.79-21.57-16.57-39.65-33.8-54-32.17-26.84-84.59-14-98.13,23.63-6.26,17.41,1.92,43,19,55.29-9.86-20.46-15.34-41.16-4.83-63.91,23.42,17.83,41.15,37.48,43,67.32.9,14.84,4,29.55,6.37,46.13-25.08-6.22-45.68-17.71-60-39.44-14-21.24-18.28-43.95-13.32-67.74-15.1,1.59-29.5,5.34-43.33,3.91-13.36-1.39-26.12-8.12-39-15.22,24.79-6,40.56-30.33,67.71-27.08,8.74,1.05,17.11,5,25.66,7.67q.42,2.89.86,5.79l-40.48,20.81c12.16,2.95,24-2.31,32.76-10.27C231,386,252,372.23,280.85,371.86c-14.59-12.81-35-18-42.74-37.74,57.24,24,58-3.75,118.17,97.84,1.76-7.76,4.44-14,4.38-20.32-.2-22.93-.39-45.92-2.5-68.72-1-10.32-8.79-16.73-21.05-18-10.33-1.05-16.61-7.2-14.22-17.51l-23.12-17.58c17.7-3.76,23.73-23.46,43.26-13.48-5.26-8.57-18.37-11.2-29.74-6.32-4.81,2.06-8.72,6.53-13.63,7.79-6.73,1.72-14,1.94-21.05,1.85-5.53-.07-11.12-1.29-16.55-2.53-7.33-1.68-13.4-3.79-6-12.73,3.94-4.73,6-10.94,9.67-18-13.81,2-25.58,15.25-39,3.17-8.73-7.88-23.54-10.26-25.48-27.32,24,12.72,48.6,10.54,72.7,9.76,63.21-2.06,99.32,45.09,101.51,95.22.14,3.23.83,6.44,1.82,13.69,13.79-27.46,27.1-50.88,37.52-75.45,14.06-33.18,27.8-66.72,38.14-101.09,9.48-31.48,2.67-62-18.55-88.54-22-27.6-75.94-25.59-95.59,3.51-10.68,15.81-6.54,45.46,8.44,57.56-3.62-20.77-7.76-41.3,7.81-61,2.25,4.58,3,8.73,5.57,10.95,24.44,21.18,21.78,48.89,20.57,76.38-.41,9.32-.07,18.66-.07,28.17-41.32-6.71-65.85-60.91-51.68-114.26-30.45,6.18-56.24-.45-76.4-23.32,18.46-5.65,35.48-11.18,52.7-16,12.17-3.41,26.57,2.2,38.71,14.53-10.54,12.93-25.42,15.17-42,15.37,11.75,6.09,26.94,4,43-6.43,14.81-9.57,30.37-16,48.57-14.41,5.14.45,10.21,1.63,18,2.91C397.8,33.54,378.65,24,371.82,3.35c14.91,7.68,29,13.52,41.4,21.77,9.61,6.41,19.42,14.55,25,24.14,18.19,31.08,33.87,63.91,30.15,100.64-2.18,21.42-9.9,42.32-15.2,63.44-1,3.89-2.36,7.7-2,12.18,22.28-24.09,42.91-49.27,49.77-81.39,5.17-24.17,7.59-48.93,10.33-73.53,2.77-25,35.63-63.51,65-70.6,2.68,26.16,6.6,52.25,7.71,78.44,1.39,32.63-17.24,55.25-45.12,72.35,13.31-21.65,22.07-44.33,20.92-71.53-15,31.25-29.12,60.69-43.41,90.45,25.75-6.06,49.29-18.62,68-39.69l4.38,1.88c-2.21,8.8-3.43,18-6.83,26.32C574.81,175.77,560,187,544.05,196.7c-15.4,9.37-31.22,18.11-46.72,27.34a36.92,36.92,0,0,0-12.57,11.6c10.72-2.51,21.39-6.78,32.18-7.1,13.85-.41,27.9,1.78,41.68,4,9.89,1.56,19.47,4.92,30.9,7.93-16.38,12.41-36,4.52-54.85,8.8,2.87,3,4.57,5.13,6.67,6.84,14.94,12.22,25.36,26.77,30.29,45.56,3.79,14.43,10.83,28,24.9,34.94L572.7,297.3c20.94-4.45,37.92,3.5,47.62,19.95,7.6,12.89,15,25.86,22.51,38.71-21.12,7.91-45.57-2.75-71.15-32.74-23,50.82-63,64.67-118.4,51.65,30.51-29.79,49.45-69.65,100-67.28.73,21.89-15.62,34.64-32.38,47.47,18.33-3.22,31.73-12.83,38.83-28.95,7.93-18,2.39-35.21-9.72-49.2-24.8-28.66-50-32.3-86.85-16.07-17.35,7.64-30.92,19.17-38.63,37.07-11.33,26.31-30,49.68-33.61,79.1-1.59,13.05-3.47,26.07-5.21,39.11l3.35,2.32L415,392c5.49,14,.44,25.5-4.14,36.81-3.71,9.15-8.55,17.88-12.9,26.78-10.4,21.29-9.84,43.49-7.42,65.84l3.3.48c1.3-7.62,2-15.39,4-22.83,12.63-46.52,50.53-80.92,112.15-70.72a319,319,0,0,0,41,4.55c9.42.32,18.93-2.08,29-3.33-.5,18.78-19.81,15.55-29.39,22.93-13.94,10.74-24.21-6.67-38.77-10.9l13.45,30.58c-19.64,0-37.43,11.49-54.87-6.45-13-13.35-25.61-12.92-39.88-2.22,5.61-.69,8.91-1.9,11.73-1.23a30.25,30.25,0,0,1,10,5.05c2.13,1.51,3.25,4.28,5.28,6,3.89,3.28,8.11,6.2,12.18,9.28-5.53,4.21-11,8.5-16.65,12.55-.85.61-2.57.08-4.73.08,2.67,10.75-3,14.51-13.1,14.94-17.71.76-23,5-28.3,21.3-10.48,31.93,2.1,59.2,20.14,85.37-3.66-12.31-8.12-24.45-10.76-37-3.24-15.37-7.08-31.38,3.5-45.68,2.45-3.31,7.63-6.43,11.7-6.62,14.13-.67,23.9-7.4,32.77-17.25,5.15-5.72,12.15-9.91,21.52-17.31,1,9.46,1.8,14.26,2.05,19.08,1.9,37.58,2.92,75.23,5.84,112.75,1.4,18.21,4.18,34.6,21.18,42.77,17.55,8.44,21.77,10.44,49,15.26,18.23,3.22,53.28,3.85,53.28,3.85v5.44H274.14v-9.55s14.8,0,28.52-1.3c35.41-2.59,53.53-13.06,68.74-22.26,10.78-6.11,16.88-17.26,19.17-23.57,6.26-17.23,4-34.12-4.93-50.76-12.26-22.76-22.88-46.32-34.49-69.41-8.48-16.85-19.37-31.74-37.86-39.92-1.37-.61-2.1-2.58-3.12-3.92C310.71,470.58,311.25,469.7,311.8,468.82Z"
            style="fill:#ffffff" />
        <path
            d="M396.64,261.62V248c0-37.25.44-74.51-.09-111.75a190.21,190.21,0,0,0-4.44-39.38c-1.87-8.22-7.6-15.63-11.68-23.56,11.26-6.1,31.59-.67,43.06,13.64,15.22,19,18.59,41.48,16.8,64.31-1,13-5.18,26.12-9.9,38.48-9.32,24.33-20,48.18-30.13,72.22Z"
            style="fill:#ffffff" />
        <path
            d="M487.23,270.05c-.13,21.72,5.8,42.44-13.06,59.8-14.63,13.45-27.2,29-41.43,44.37,9.93,10.38,23.66,16.3,39.2,19.18,4.31.8,9.12,1.4,12.51,3.71,2.18,1.49,3.15,6,2.84,9-.23,2.24-3,5.46-5.31,6.06-17.19,4.5-34.55,8.46-52,12.62,4.28-21.67,2.27-44-8.25-67.28l-14.69,18.62L404.6,375c2.06-5.88,3.47-12.08,6.3-17.59,10.79-21.07,21.31-42.31,33.36-62.7C452.84,280.22,467.66,273.23,487.23,270.05Z"
            style="fill:#ffffff" />
        <path d="M517.61,24.89c-28.45,31.84-22.32,69.55-30.33,104.46C476,92.88,465.93,56.7,439.43,24.89Z"
            style="fill:#ffffff" />
    </g>
</svg>