<?xml version="1.0" standalone="no"?>
<!DOCTYPE svg PUBLIC "-//W3C//DTD SVG 20010904//EN"
 "http://www.w3.org/TR/2001/REC-SVG-20010904/DTD/svg10.dtd">
<svg version="1.0" xmlns="http://www.w3.org/2000/svg"
 width="944.000000pt" height="944.000000pt" viewBox="0 0 944.000000 944.000000"
 preserveAspectRatio="xMidYMid meet">
<metadata>
Created by potrace 1.14, written by Peter Selinger 2001-2017
</metadata>
<g transform="translate(0.000000,944.000000) scale(0.100000,-0.100000)"
fill="#000000" stroke="none">
<path d="M9292 9393 c2 -10 -19 -63 -32 -83 -6 -8 -14 -25 -20 -37 -14 -33
-91 -155 -109 -174 -9 -9 -23 -26 -31 -38 -25 -37 -112 -124 -165 -166 -27
-22 -51 -43 -53 -47 -2 -5 -10 -8 -18 -8 -8 0 -14 -5 -14 -11 0 -5 -4 -8 -9
-5 -5 4 -11 2 -13 -3 -9 -23 -317 -168 -397 -186 -9 -2 -69 -18 -135 -35 -65
-16 -133 -32 -150 -35 -17 -2 -67 -11 -111 -19 -122 -22 -175 -29 -290 -40
-27 -3 -50 -5 -50 -6 0 -1 -25 -3 -55 -6 -125 -8 -170 -13 -181 -20 -8 -5 -9
-3 -4 6 5 9 4 11 -4 6 -13 -8 -67 -12 -371 -22 -249 -9 -710 -8 -2340 1 -1897
11 -2015 10 -2190 -10 -19 -2 -60 -6 -91 -10 -31 -3 -66 -7 -76 -9 -11 -3 -42
-7 -69 -11 -54 -7 -89 -13 -89 -15 0 -1 -9 -3 -20 -5 -55 -8 -93 -15 -125 -23
-19 -5 -38 -9 -42 -10 -5 -1 -9 -2 -10 -3 -2 0 -14 -2 -27 -5 -13 -2 -78 -20
-145 -39 -146 -43 -135 -39 -169 -53 -16 -7 -32 -12 -36 -12 -9 0 -152 -57
-229 -91 -142 -62 -372 -188 -449 -245 -17 -13 -36 -24 -42 -24 -6 0 -11 -4
-11 -8 0 -4 -12 -15 -27 -24 -34 -21 -67 -46 -99 -76 -13 -13 -24 -21 -24 -18
0 13 -255 -233 -305 -295 -81 -100 -105 -131 -141 -184 -83 -121 -205 -362
-219 -434 -2 -9 -10 -34 -18 -56 -20 -50 -57 -212 -63 -274 -2 -25 -7 -57 -10
-71 -10 -42 -12 -391 -3 -455 5 -33 11 -87 14 -119 3 -33 9 -64 12 -69 3 -5 7
-21 9 -36 8 -72 38 -193 75 -306 13 -38 24 -74 24 -80 1 -12 43 -122 56 -147
5 -10 9 -22 9 -28 0 -5 12 -35 27 -67 15 -32 28 -63 29 -69 7 -38 239 -475
256 -482 4 -2 8 -8 8 -14 0 -6 16 -36 37 -67 20 -31 52 -81 72 -111 51 -80
134 -194 143 -198 5 -2 8 -8 8 -14 0 -6 10 -22 22 -37 13 -15 34 -42 48 -61
14 -18 31 -39 38 -46 6 -7 12 -17 12 -22 0 -6 4 -12 9 -14 4 -1 32 -32 61 -68
30 -36 64 -76 77 -90 12 -14 37 -41 54 -60 17 -19 29 -30 26 -25 -2 6 -32 69
-66 140 -34 72 -66 139 -71 150 -97 228 -205 537 -244 705 -2 8 -9 33 -15 55
-6 22 -12 51 -15 65 -2 14 -5 25 -6 25 -1 0 -3 11 -6 25 -2 14 -8 48 -14 75
-5 28 -12 68 -16 90 -3 22 -8 51 -10 65 -3 14 -7 45 -9 70 -3 25 -7 59 -10 75
-10 55 -13 449 -4 515 5 35 11 82 13 105 11 99 63 302 101 390 22 53 36 89 37
95 1 11 41 86 56 103 8 9 12 17 8 17 -3 0 16 36 44 81 27 44 50 85 50 90 0 5
3 9 8 9 4 0 18 17 32 38 14 20 27 39 30 42 3 3 21 25 40 50 41 53 54 67 142
157 99 101 213 196 313 261 28 18 57 37 65 42 113 76 445 219 568 245 9 2 48
11 87 20 38 9 83 18 100 21 16 2 41 6 55 9 14 3 48 8 75 10 28 2 50 5 50 5 0
5 123 10 220 10 137 1 296 -11 363 -25 12 -3 32 -7 44 -10 12 -2 40 -7 63 -10
22 -4 63 -13 91 -21 28 -8 60 -16 70 -19 59 -13 271 -92 299 -111 11 -8 27
-14 37 -14 10 0 18 -4 18 -9 0 -5 15 -14 33 -20 18 -6 56 -27 86 -46 29 -19
55 -35 58 -35 4 0 84 -53 108 -72 104 -82 143 -115 210 -183 44 -44 96 -100
115 -124 19 -23 40 -48 45 -54 21 -23 146 -222 150 -237 0 -3 11 -25 24 -49
75 -144 154 -414 166 -571 2 -19 4 -35 5 -35 12 0 19 -3639 6 -3652 -3 -3 -6
5 -7 18 0 13 -2 31 -4 39 -12 50 -25 126 -35 200 -6 47 -13 96 -15 110 -2 14
-7 54 -10 90 -4 36 -9 85 -11 110 -6 50 -9 80 -19 190 -11 113 -13 135 -15
135 -1 0 -3 16 -5 35 -1 19 -3 35 -4 35 -1 0 -4 18 -6 40 -6 65 -15 125 -32
205 -18 93 -23 119 -26 145 -1 11 -5 22 -9 25 -3 3 -9 21 -11 40 -3 19 -6 36
-7 38 -2 1 -4 7 -5 12 -1 6 -4 13 -5 18 -1 4 -2 11 -1 16 1 4 -3 14 -9 21 -6
7 -10 17 -9 21 1 5 0 12 -1 17 -3 8 -4 12 -15 52 -4 17 -12 35 -16 41 -5 6
-10 19 -12 30 -2 10 -9 30 -15 44 -5 14 -14 34 -18 45 -9 26 -9 24 -24 65 -46
122 -263 508 -291 518 -5 2 -9 10 -9 18 0 8 -7 17 -15 20 -8 4 -15 11 -15 18
0 6 -8 19 -18 28 -9 8 -33 35 -52 59 -37 46 -173 192 -203 218 -10 9 -46 42
-80 74 -34 32 -109 97 -167 145 -58 47 -107 89 -110 92 -3 3 -21 17 -40 30
-19 13 -40 30 -47 36 -7 7 -65 52 -130 100 -65 49 -119 92 -121 97 -2 4 -10 7
-17 7 -7 0 -15 4 -17 8 -1 4 -24 23 -50 42 -27 18 -48 37 -48 42 0 4 -6 8 -12
8 -7 0 -32 15 -54 33 -23 18 -59 46 -80 63 -208 161 -315 254 -408 353 -34 35
-69 73 -79 83 -19 20 -137 194 -137 201 0 3 -8 22 -17 43 -9 22 -17 41 -18 44
0 3 -6 21 -12 40 -25 75 -33 165 -22 237 l6 42 -66 -46 c-36 -26 -68 -49 -71
-53 -3 -3 -18 -16 -35 -29 -57 -43 -154 -132 -222 -203 -92 -95 -85 -87 -190
-227 -23 -31 -47 -61 -52 -68 -6 -7 -11 -14 -11 -17 0 -2 -20 -37 -43 -78 -46
-76 -127 -240 -127 -255 0 -4 -6 -19 -13 -33 -7 -14 -23 -59 -36 -100 -27 -88
-30 -99 -31 -105 -1 -3 -6 -19 -11 -37 -5 -18 -12 -44 -14 -58 -2 -14 -7 -36
-10 -50 -3 -14 -8 -41 -11 -60 -2 -19 -6 -45 -9 -58 -14 -80 -20 -180 -19
-342 0 -209 8 -306 35 -455 7 -33 13 -69 14 -80 2 -11 6 -31 9 -45 3 -14 10
-43 15 -65 38 -165 134 -455 183 -547 10 -21 19 -40 18 -43 0 -3 18 -43 40
-90 22 -46 40 -88 40 -94 0 -5 3 -11 8 -13 4 -1 18 -23 31 -48 36 -70 71 -133
89 -161 9 -15 32 -52 50 -82 17 -30 39 -60 47 -67 8 -7 15 -18 15 -25 0 -8 3
-15 8 -17 4 -1 25 -29 46 -60 21 -32 46 -65 55 -75 9 -10 23 -27 31 -39 36
-50 123 -147 225 -249 129 -128 190 -181 310 -269 22 -17 42 -33 45 -36 13
-15 271 -180 410 -261 150 -88 462 -252 482 -254 4 0 13 -6 19 -13 7 -6 17
-12 21 -12 5 0 41 -15 81 -34 164 -77 231 -106 243 -106 8 0 14 -5 14 -11 0
-5 4 -8 9 -4 5 3 12 1 15 -4 3 -5 16 -11 29 -15 13 -3 45 -15 73 -28 27 -12
51 -23 54 -23 3 -1 19 -7 35 -14 17 -7 36 -14 43 -15 7 -1 18 -8 24 -14 7 -7
20 -12 30 -12 21 0 71 -21 80 -35 4 -5 8 -7 8 -3 0 7 39 -5 105 -32 101 -41
99 -45 51 93 -79 223 -196 522 -221 569 -8 14 -15 32 -15 40 0 7 -7 27 -16 43
-9 17 -27 57 -41 90 -99 235 -302 648 -394 800 -10 16 -28 49 -40 73 -12 23
-25 42 -30 42 -5 0 -9 4 -9 10 0 9 -69 123 -90 147 -5 7 -10 17 -10 23 0 5 -3
10 -8 10 -4 0 -18 18 -32 40 -14 22 -28 40 -32 40 -5 0 -8 4 -8 10 0 10 -26
44 -62 82 -10 10 -18 23 -18 28 0 6 -4 10 -9 10 -5 0 -11 7 -15 15 -3 8 29 -7
72 -34 42 -26 88 -54 102 -62 14 -8 27 -16 30 -19 3 -3 56 -41 117 -84 62 -43
113 -83 113 -87 0 -5 6 -9 14 -9 7 0 24 -10 37 -23 13 -13 51 -45 84 -72 99
-81 336 -324 410 -420 38 -49 72 -92 76 -95 22 -18 180 -280 215 -355 10 -22
22 -43 27 -46 5 -3 8 -10 7 -15 0 -5 9 -31 21 -59 12 -27 25 -59 30 -70 11
-27 68 -203 74 -229 12 -51 26 -123 30 -146 2 -14 6 -41 9 -60 22 -136 23
-366 1 -475 -2 -11 -4 -20 -5 -20 -1 0 -3 -9 -5 -20 -26 -153 -128 -369 -240
-504 -36 -42 -129 -133 -165 -160 -19 -14 -37 -28 -40 -31 -11 -12 -119 -80
-175 -110 -33 -18 -66 -37 -74 -44 -8 -6 -17 -10 -20 -10 -7 2 -21 -4 -126
-45 -61 -24 -106 -39 -132 -42 -5 -1 -19 -6 -33 -11 -14 -5 -36 -12 -50 -14
-14 -3 -50 -11 -80 -19 -53 -13 -113 -24 -155 -30 -11 -2 -42 -7 -70 -11 -27
-4 -63 -8 -80 -10 -16 -1 -30 -3 -30 -4 0 -3 -141 -12 -222 -13 -51 -1 -93 -6
-93 -11 0 -6 -5 -5 -12 2 -7 7 -17 8 -29 2 -11 -7 -20 -7 -24 0 -3 5 -13 6
-21 3 -9 -3 -35 -6 -57 -7 l-42 -1 -2 -127 -2 -128 2739 0 2739 0 0 131 0 130
-115 -2 c-63 -1 -117 1 -121 4 -3 3 -16 2 -29 -3 -16 -6 -24 -6 -24 1 0 6 -7
6 -20 -1 -14 -8 -26 -8 -40 0 -14 8 -20 8 -20 0 0 -6 -4 -8 -10 -5 -5 3 -70 8
-142 11 -133 5 -188 9 -263 18 -22 3 -65 7 -95 11 -77 8 -348 68 -400 88 -8 3
-33 11 -55 18 -22 7 -59 20 -83 30 -23 10 -44 19 -47 19 -15 1 -170 88 -233
131 -113 77 -193 153 -278 266 -53 70 -110 171 -106 186 1 4 -2 7 -7 7 -7 0
-17 22 -20 45 0 3 -7 18 -15 33 -12 24 -38 107 -51 167 -3 11 -8 34 -12 50 -9
43 -12 62 -17 132 -2 34 -7 66 -9 70 -7 11 -6 4526 1 4537 3 5 6 31 8 56 3 56
14 127 35 225 16 72 58 215 75 252 8 17 14 37 14 45 0 7 7 22 15 32 8 11 15
28 15 37 0 10 3 19 8 21 4 2 22 32 40 68 45 89 63 120 90 149 12 14 22 29 22
33 0 21 185 220 281 302 54 46 156 116 168 116 6 0 11 4 11 9 0 5 64 41 143
80 154 76 298 129 427 155 14 3 43 10 65 15 22 5 60 12 85 15 25 3 70 8 100
12 80 10 335 11 405 2 95 -12 128 -17 155 -23 14 -3 39 -7 55 -10 25 -3 104
-24 150 -39 6 -1 24 -6 40 -10 17 -4 39 -12 50 -16 11 -5 49 -21 85 -36 109
-44 279 -142 309 -178 7 -9 18 -16 23 -16 14 0 178 -163 172 -171 -2 -4 2 -9
9 -12 29 -11 157 -231 157 -269 0 -10 5 -18 12 -18 6 0 9 -3 5 -6 -3 -3 -1
-18 5 -33 20 -51 45 -192 43 -238 -1 -18 2 -33 7 -33 5 0 4 -9 -2 -20 -11 -21
-8 -23 33 -23 9 0 17 -4 17 -9 0 -5 5 -6 11 -2 7 4 30 7 53 8 l41 1 3 1408 2
1407 -75 0 c-41 0 -74 -3 -73 -7z"/>
</g>
</svg>
